<svg id="Layer_2" data-name="Layer 2" xmlns="http://www.w3.org/2000/svg" xmlns:xlink="http://www.w3.org/1999/xlink" viewBox="0 0 152.8 196.7"><defs><style>.cls-1{fill:#0100d7;}.cls-2{fill:url(#radial-gradient);}.cls-3{fill:url(#radial-gradient-2);}</style><radialGradient id="radial-gradient" cx="130.3" cy="59.44" r="94.85" gradientUnits="userSpaceOnUse"><stop offset="0.28" stop-color="#fff" stop-opacity="0.4"/><stop offset="1" stop-color="#fff" stop-opacity="0"/></radialGradient><radialGradient id="radial-gradient-2" cx="112.35" cy="64.52" r="150.35" gradientUnits="userSpaceOnUse"><stop offset="0" stop-color="#fff" stop-opacity="0"/><stop offset="1" stop-opacity="0.3"/></radialGradient></defs><path class="cls-1" d="M66.1,1.62C37.59,7.68,15.73,28.13,6.43,55.56-4.28,87.11-2.11,131.69,16.7,160c18.28,27.47,53.55,38.86,85.35,36.44,9.38-.72,17.12-1.3,26-6,3.55-1.88,15.06-8,21-21,8.1-17.76,2.33-40.64-10-52-5.71-5.27-9.4-4.89-13-11-6.23-10.58-2.43-24-1-29,3-10.67,6.27-10.34,9-19,3.69-11.72,2.92-28.68-7-41-9.06-11.25-22-13.92-32-16A70.63,70.63,0,0,0,66.1,1.62Z"/><path class="cls-2" d="M66.1,1.62C37.59,7.68,15.73,28.13,6.43,55.56-4.28,87.11-2.11,131.69,16.7,160c18.28,27.47,53.55,38.86,85.35,36.44,9.38-.72,17.12-1.3,26-6,3.55-1.88,15.06-8,21-21,8.1-17.76,2.33-40.64-10-52-5.71-5.27-9.4-4.89-13-11-6.23-10.58-2.43-24-1-29,3-10.67,6.27-10.34,9-19,3.69-11.72,2.92-28.68-7-41-9.06-11.25-22-13.92-32-16A70.63,70.63,0,0,0,66.1,1.62Z"/><path class="cls-3" d="M66.1,1.62C37.59,7.68,15.73,28.13,6.43,55.56-4.28,87.11-2.11,131.69,16.7,160c18.28,27.47,53.55,38.86,85.35,36.44,9.38-.72,17.12-1.3,26-6,3.55-1.88,15.06-8,21-21,8.1-17.76,2.33-40.64-10-52-5.71-5.27-9.4-4.89-13-11-6.23-10.58-2.43-24-1-29,3-10.67,6.27-10.34,9-19,3.69-11.72,2.92-28.68-7-41-9.06-11.25-22-13.92-32-16A70.63,70.63,0,0,0,66.1,1.62Z"/></svg>